<svg xmlns="http://www.w3.org/2000/svg" xmlns:xlink="http://www.w3.org/1999/xlink" clip-rule="evenodd" fill-rule="evenodd" preserveAspectRatio="xMidYMid meet" stroke-linejoin="round" stroke-miterlimit="2" version="1.0" viewBox="6.3 6.3 120.7 120.7" zoomAndPan="magnify" style="fill: rgb(153, 149, 139);" original_string_length="3247"><g id="id137_sz5zi6t4i"><circle cx="66.667" cy="116.667" r="3.174" style="fill: inherit;"/></g><g id="id138_sz5zi6t4i"><path d="M62.5,18.682l8.333,0c1.113,0 2.016,-0.903 2.016,-2.015c0,-1.113 -0.903,-2.016 -2.016,-2.016l-8.333,-0c-1.112,-0 -2.016,0.903 -2.016,2.016c0,1.112 0.904,2.015 2.016,2.015Z" style="fill: inherit;"/></g><g id="id139_sz5zi6t4i"><path d="M19.096,6.318c-3.389,-0 -6.639,1.346 -9.036,3.742c-2.396,2.397 -3.742,5.647 -3.742,9.036c-0,22.216 -0,72.926 -0,95.142c-0,3.389 1.346,6.639 3.742,9.035c2.397,2.396 5.647,3.743 9.036,3.743c22.216,-0 72.926,-0 95.142,-0c3.389,-0 6.639,-1.347 9.035,-3.743c2.396,-2.396 3.743,-5.646 3.743,-9.035c-0,-22.216 -0,-72.926 -0,-95.142c-0,-3.389 -1.347,-6.639 -3.743,-9.036c-2.396,-2.396 -5.646,-3.742 -9.035,-3.742l-95.142,-0Zm-0,4.031l95.142,0c2.319,0 4.544,0.922 6.184,2.562c1.641,1.64 2.562,3.865 2.562,6.185c0,22.216 0,72.926 0,95.142c0,2.319 -0.921,4.544 -2.562,6.184c-1.64,1.641 -3.865,2.562 -6.184,2.562c-22.216,0 -72.926,0 -95.142,0c-2.32,0 -4.545,-0.921 -6.185,-2.562c-1.64,-1.64 -2.562,-3.865 -2.562,-6.184c0,-22.216 0,-72.926 0,-95.142c0,-2.32 0.922,-4.545 2.562,-6.185c1.64,-1.64 3.865,-2.562 6.185,-2.562Z" style="fill: inherit;"/></g><g id="id140_sz5zi6t4i"><path d="M8.333,22.984c-1.113,0 -2.015,0.903 -2.015,2.016l-0,83.333c-0,1.114 0.902,2.016 2.015,2.016l116.667,0c1.113,0 2.016,-0.902 2.016,-2.016l-0,-83.333c-0,-1.113 -0.903,-2.016 -2.016,-2.016l-116.667,0Zm2.016,4.032l0,79.302l112.635,-0l0,-79.302l-112.635,-0Z" style="fill: inherit;"/></g><g id="id141_sz5zi6t4i"><path d="M33.249,82.811c0.36,0.294 0.81,0.455 1.275,0.455l78.571,-0c0.872,-0 1.646,-0.561 1.916,-1.39l3.572,-10.938c0.066,-0.202 0.099,-0.413 0.099,-0.626l0,-7.291c0,-0.213 -0.033,-0.424 -0.099,-0.626l-3.572,-10.937c-0.27,-0.829 -1.044,-1.39 -1.916,-1.39l-78.571,-0c-0.465,-0 -0.915,0.16 -1.275,0.454l-17.857,14.583c-0.469,0.383 -0.741,0.956 -0.741,1.562c-0,0.605 0.272,1.178 0.741,1.561l17.857,14.583Zm1.993,-28.712l-15.389,12.568l15.389,12.567l76.391,0l3.018,-9.242l-0,-6.65l-3.018,-9.243l-76.391,0Z" style="fill: inherit;"/></g><g id="id142_sz5zi6t4i"><path d="M39.422,66.667l-6.708,-13.697c-0.49,-0.999 -0.076,-2.208 0.923,-2.697c0.999,-0.489 2.208,-0.075 2.697,0.924l7.143,14.583c0.274,0.559 0.274,1.214 -0,1.773l-7.143,14.584c-0.489,0.999 -1.698,1.413 -2.697,0.923c-0.999,-0.489 -1.413,-1.698 -0.923,-2.697l6.708,-13.696Z" style="fill: inherit;"/></g><g id="id143_sz5zi6t4i"><path d="M53.303,68.682l53.571,0c1.113,0 2.016,-0.903 2.016,-2.015c-0,-1.113 -0.903,-2.016 -2.016,-2.016l-53.571,-0c-1.113,-0 -2.016,0.903 -2.016,2.016c0,1.112 0.903,2.015 2.016,2.015Z" style="fill: inherit;"/></g><g id="id144_sz5zi6t4i"><path d="M22.272,62.137c1.356,1.6 2.112,3.134 2.114,4.665c0.003,1.485 -0.725,2.904 -2.049,4.322c-0.76,0.813 -0.717,2.089 0.096,2.849c0.813,0.759 2.09,0.716 2.849,-0.097c2.145,-2.294 3.139,-4.676 3.136,-7.08c-0.004,-2.358 -0.982,-4.801 -3.071,-7.266c-0.719,-0.849 -1.992,-0.954 -2.841,-0.234c-0.848,0.719 -0.953,1.992 -0.234,2.841Z" style="fill: inherit;"/></g></svg>