<svg xmlns="http://www.w3.org/2000/svg" xmlns:xlink="http://www.w3.org/1999/xlink" preserveAspectRatio="xMidYMid meet" version="1.0" viewBox="0.0 0.0 126.0 102.0" zoomAndPan="magnify" style="fill: rgb(153, 149, 139);" original_string_length="9498"><g id="__id126_sz5zi6t4i"><path d="M28.152,33.278c3.855-1.601,7.93-2.413,12.108-2.413s8.253,0.812,12.109,2.413c0.126,0.052,0.256,0.077,0.384,0.077 c0.392,0,0.764-0.232,0.924-0.617c0.212-0.51-0.03-1.095-0.54-1.307c-4.102-1.702-8.435-2.565-12.877-2.565 c-4.443,0-8.775,0.863-12.876,2.566c-0.51,0.211-0.752,0.797-0.54,1.307C27.058,33.249,27.641,33.491,28.152,33.278z" style="fill: inherit;"/><path d="M53.139,41.388c-4.468-1.863-9.374-2.751-14.165-2.565c-3.989,0.153-7.889,1.016-11.591,2.565 c-0.51,0.213-0.75,0.799-0.537,1.308c0.215,0.511,0.801,0.75,1.309,0.537c3.481-1.456,7.147-2.268,10.896-2.412 c4.515-0.165,9.116,0.661,13.319,2.413c0.126,0.053,0.256,0.078,0.385,0.078c0.392,0,0.763-0.232,0.923-0.616 C53.89,42.186,53.648,41.6,53.139,41.388z" style="fill: inherit;"/><path d="M28.152,53.08c3.855-1.601,7.93-2.413,12.108-2.413s8.253,0.812,12.109,2.413c0.126,0.052,0.256,0.077,0.384,0.077 c0.392,0,0.764-0.232,0.924-0.617c0.212-0.51-0.03-1.095-0.54-1.307c-4.102-1.702-8.435-2.565-12.877-2.565 c-4.443,0-8.775,0.863-12.876,2.566c-0.51,0.211-0.752,0.797-0.54,1.307C27.058,53.05,27.641,53.293,28.152,53.08z" style="fill: inherit;"/><path d="M53.139,61.19c-4.467-1.864-9.371-2.75-14.165-2.565c-3.989,0.153-7.889,1.017-11.591,2.566 c-0.51,0.213-0.75,0.799-0.537,1.308c0.215,0.51,0.801,0.75,1.309,0.537c3.481-1.456,7.147-2.268,10.896-2.413 c4.508-0.173,9.116,0.661,13.319,2.413c0.126,0.053,0.256,0.078,0.385,0.078c0.391,0,0.763-0.231,0.923-0.616 C53.89,61.988,53.648,61.402,53.139,61.19z" style="fill: inherit;"/><path d="M119.258,64h-6.283l0.018-28h6.262c3.72,0,6.745-3.025,6.745-6.745V6.745C126,3.025,122.975,0,119.255,0h-22.51 C93.025,0,90,3.025,90,6.745v8.045c-1.901-0.002-3.8,0.126-5.653,0.396C74.609,16.602,66.494,21.146,63,23.738 c-3.493-2.592-11.608-7.137-21.346-8.553c-7.162-1.042-14.57-0.07-22.022,2.885C19.25,18.222,19,18.59,19,19v3h-5 c-0.266,0-0.52,0.105-0.707,0.293C13.105,22.481,13,22.735,13,23l0.026,43.125H6.745C3.025,66.126,0,69.151,0,72.871v22.385 C0,98.975,3.025,102,6.745,102h22.513c3.72,0,6.745-3.025,6.745-6.745V82.143c11.767,1.024,18.404,5.54,20.077,6.831 C56.026,89.319,56,89.663,56,90c0,3.86,3.141,7,7,7s7-3.14,7-7c0-0.336-0.026-0.68-0.079-1.026 c1.673-1.292,8.311-5.808,20.079-6.832v11.133c0,3.719,3.025,6.745,6.745,6.745h22.513c3.72,0,6.745-3.026,6.745-6.745v-22.53 C126.003,67.025,122.978,64,119.258,64z M110.974,64H107V36h3.992L110.974,64z M92,6.745C92,4.128,94.129,2,96.745,2h22.51 C121.871,2,124,4.128,124,6.745v22.511c0,2.616-2.129,4.745-4.745,4.745h-7.261h-0.001H96.745C94.129,34,92,31.872,92,29.255V6.745 z M84.634,17.165c1.76-0.256,3.562-0.376,5.366-0.376v12.375c-1.416-0.181-2.842-0.299-4.261-0.299 c-4.443,0-8.775,0.863-12.876,2.566c-0.51,0.211-0.752,0.797-0.54,1.307c0.16,0.385,0.532,0.617,0.924,0.617 c0.128,0,0.258-0.025,0.384-0.077c3.855-1.601,7.93-2.413,12.108-2.413c1.517,0,3.044,0.129,4.553,0.348 C91.133,33.98,93.707,36,96.745,36H105v28h-8.255c-2.903,0-5.376,1.847-6.325,4.424c-1.602,0.009-3.21,0.089-4.796,0.273 C76.446,69.763,68.353,73.885,64,76.825V25.492C67.185,23.061,75.068,18.556,84.634,17.165z M35.532,70.41 c1.54,0.005,3.088,0.096,4.614,0.273C49.849,71.81,58.254,76.483,62,79.278v3.768c-4.353-2.94-12.444-7.061-21.624-8.126 c-1.445-0.169-2.906-0.245-4.373-0.265v-1.785C36.003,72.002,35.832,71.174,35.532,70.41z M64,79.278 c3.748-2.796,12.155-7.468,21.854-8.594c1.376-0.159,2.773-0.234,4.161-0.252C90.011,70.536,90,70.639,90,70.745v3.912 c-1.463,0.023-2.93,0.095-4.376,0.263C76.446,75.986,68.353,80.107,64,83.048V79.278z M21,19.684 c6.909-2.633,13.756-3.481,20.367-2.519c9.564,1.391,17.448,5.896,20.633,8.326v51.333c-4.353-2.94-12.444-7.061-21.624-8.127 c-2.004-0.233-4.037-0.316-6.055-0.268c-1.237-1.408-3.046-2.303-5.063-2.303H21V19.684z M15.001,24H19v42.126h-3.974L15.001,24z M29.258,100H6.745C4.129,100,2,97.872,2,95.255V72.871c0-2.616,2.129-4.745,4.745-4.745h7.281c0,0,0,0,0.001,0h15.23 c2.616,0,4.745,2.128,4.745,4.745v8.11c0,0.001-0.001,0.002-0.001,0.004c0,0.003,0.001,0.005,0.001,0.007v14.264 C34.003,97.872,31.874,100,29.258,100z M68.151,87.838c-0.271,0.246-0.385,0.62-0.299,0.975C67.95,89.219,68,89.618,68,90 c0,2.757-2.243,5-5,5s-5-2.243-5-5c0-0.383,0.05-0.781,0.148-1.185c0.087-0.355-0.028-0.73-0.299-0.977 c-0.297-0.271-7.323-6.487-21.847-7.7v-3.484c1.385,0.019,2.774,0.093,4.143,0.252c10.038,1.166,18.703,6.132,22.24,8.883 c0.039,0.031,0.085,0.044,0.127,0.068c0.027,0.015,0.048,0.036,0.076,0.049c0.018,0.008,0.036,0.014,0.055,0.021 C62.759,85.972,62.879,86,62.999,86c0,0,0,0,0,0s0,0,0,0c0,0,0,0,0,0s0,0,0,0c0.12,0,0.24-0.028,0.355-0.072 c0.019-0.007,0.037-0.013,0.056-0.022c0.028-0.013,0.049-0.034,0.076-0.049c0.042-0.024,0.087-0.037,0.126-0.068 c3.539-2.751,12.206-7.718,22.241-8.883c1.371-0.16,2.763-0.232,4.146-0.252v3.483C75.474,81.351,68.449,87.568,68.151,87.838z M124.003,93.275c0,2.617-2.129,4.745-4.745,4.745H96.745c-2.616,0-4.745-2.128-4.745-4.745v-22.53C92,68.128,94.129,66,96.745,66 h15.228h0.001h7.284c2.616,0,4.745,2.128,4.745,4.745V93.275z" style="fill: inherit;"/><path d="M73.247,43.311c0.129,0,0.259-0.025,0.385-0.078c4.202-1.752,8.805-2.578,13.318-2.413 c3.749,0.145,7.415,0.956,10.896,2.412c0.509,0.213,1.095-0.026,1.309-0.537c0.213-0.509-0.027-1.095-0.537-1.308 c-3.702-1.549-7.603-2.412-11.592-2.565c-4.793-0.189-9.697,0.702-14.164,2.565c-0.51,0.212-0.751,0.798-0.538,1.308 C72.484,43.08,72.855,43.311,73.247,43.311z" style="fill: inherit;"/><path d="M72.323,52.54c0.16,0.385,0.532,0.617,0.924,0.617c0.128,0,0.258-0.025,0.384-0.077c3.855-1.601,7.93-2.413,12.108-2.413 s8.253,0.812,12.109,2.413c0.511,0.209,1.095-0.03,1.308-0.541c0.212-0.51-0.03-1.095-0.54-1.307 c-4.102-1.702-8.434-2.565-12.877-2.565s-8.775,0.863-12.876,2.566C72.354,51.444,72.111,52.03,72.323,52.54z" style="fill: inherit;"/><path d="M98.618,61.19c-3.702-1.549-7.602-2.413-11.592-2.566c-4.794-0.188-9.697,0.701-14.164,2.565 c-0.51,0.213-0.751,0.798-0.538,1.308c0.16,0.384,0.532,0.615,0.923,0.615c0.129,0,0.259-0.025,0.385-0.078 c4.2-1.752,8.791-2.586,13.318-2.413c3.749,0.145,7.415,0.957,10.896,2.413c0.509,0.214,1.095-0.025,1.309-0.537 C99.368,61.989,99.128,61.403,98.618,61.19z" style="fill: inherit;"/><path d="M96.966,30.667c0.114,0,0.229-0.02,0.341-0.06l8.03-2.911c1.074,0.319,2.176,0.48,3.281,0.48 c6.354,0,11.524-5.152,11.524-11.484s-5.17-11.484-11.524-11.484s-11.523,5.152-11.523,11.484c0,1.971,0.514,3.906,1.489,5.628 l-2.558,7.004c-0.133,0.365-0.043,0.774,0.231,1.049C96.449,30.564,96.705,30.667,96.966,30.667z M100.534,21.687 c-0.941-1.508-1.439-3.235-1.439-4.996c0-5.229,4.272-9.484,9.523-9.484c5.252,0,9.524,4.255,9.524,9.484s-4.272,9.484-9.524,9.484 c-1.008,0-2.015-0.163-2.992-0.485c-0.213-0.07-0.442-0.066-0.653,0.01l-6.332,2.295l1.985-5.436 C100.731,22.271,100.698,21.948,100.534,21.687z" style="fill: inherit;"/><path d="M31.688,84.063c0-2.294-0.612-4.445-1.671-6.313c-0.019-0.047-0.052-0.084-0.077-0.127 c-1.324-2.273-3.321-4.102-5.722-5.222c-0.049-0.028-0.096-0.052-0.149-0.072c-1.621-0.731-3.414-1.149-5.307-1.149 c-1.892,0-3.685,0.417-5.307,1.148c-0.054,0.019-0.102,0.044-0.151,0.073c-2.4,1.12-4.397,2.949-5.72,5.221 c-0.026,0.043-0.059,0.08-0.078,0.127c-1.059,1.868-1.671,4.019-1.671,6.313c0,1.882,0.417,3.666,1.148,5.28 c0.019,0.054,0.045,0.1,0.072,0.149c1.271,2.709,3.455,4.901,6.16,6.189c0.092,0.065,0.193,0.113,0.3,0.144 c1.605,0.714,3.377,1.119,5.245,1.119c1.868,0,3.64-0.405,5.245-1.119c0.107-0.031,0.207-0.079,0.298-0.143 c2.705-1.287,4.888-3.478,6.159-6.185c0.029-0.052,0.057-0.101,0.076-0.158C31.272,87.727,31.688,85.944,31.688,84.063z M19.763,94.894v-4.88h4.342c-0.288,1.389-0.676,2.758-1.167,4.101C21.944,94.526,20.878,94.792,19.763,94.894z M14.587,94.115 c-0.49-1.343-0.878-2.712-1.166-4.101h4.342v4.88C16.648,94.793,15.581,94.526,14.587,94.115z M9.039,79.123h2.164 c-0.207,1.301-0.333,2.615-0.375,3.94H7.887C8.017,81.654,8.42,80.326,9.039,79.123z M17.763,73.232v3.891h-4.12 c0.256-1.05,0.572-2.088,0.945-3.111C15.581,73.6,16.648,73.333,17.763,73.232z M22.938,74.011 c0.373,1.023,0.689,2.061,0.945,3.111h-4.12v-3.89C20.878,73.333,21.944,73.6,22.938,74.011z M29.638,83.063h-2.94 c-0.042-1.325-0.168-2.64-0.375-3.94h2.163C29.104,80.326,29.508,81.654,29.638,83.063z M24.697,83.063h-4.934v-3.94h4.534 C24.518,80.422,24.652,81.737,24.697,83.063z M17.763,79.123v3.94h-4.934c0.045-1.326,0.179-2.641,0.401-3.94H17.763z M7.887,85.063h2.941c0.031,0.99,0.108,1.974,0.231,2.951H8.593C8.227,87.084,7.982,86.096,7.887,85.063z M12.828,85.063h4.934 v2.951h-4.691C12.94,87.038,12.862,86.053,12.828,85.063z M19.763,88.014v-2.951h4.934c-0.033,0.99-0.112,1.975-0.244,2.951H19.763 z M26.697,85.063h2.94c-0.095,1.033-0.34,2.021-0.706,2.951h-2.466C26.589,87.037,26.666,86.053,26.697,85.063z M27.17,77.123 h-1.229c-0.12-0.529-0.254-1.056-0.402-1.579C26.135,76.014,26.684,76.54,27.17,77.123z M11.986,75.543 c-0.148,0.523-0.281,1.05-0.402,1.58h-1.229C10.841,76.54,11.39,76.014,11.986,75.543z M9.626,90.014h1.753 c0.167,0.864,0.367,1.721,0.607,2.569C11.068,91.858,10.27,90.992,9.626,90.014z M25.539,92.583c0.24-0.848,0.44-1.705,0.607-2.569 h1.752C27.254,90.991,26.456,91.857,25.539,92.583z" style="fill: inherit;"/><path d="M108,72c-5.514,0-10,4.486-10,10s4.486,10,10,10s10-4.486,10-10S113.514,72,108,72z M108,90c-4.411,0-8-3.589-8-8 s3.589-8,8-8s8,3.589,8,8S112.411,90,108,90z" style="fill: inherit;"/><path d="M119,68c-1.654,0-3,1.346-3,3s1.346,3,3,3s3-1.346,3-3S120.654,68,119,68z M119,72c-0.552,0-1-0.449-1-1s0.448-1,1-1 s1,0.449,1,1S119.552,72,119,72z" style="fill: inherit;"/></g></svg>